<?xml version="1.0" encoding="UTF-8" standalone="no"?>
<svg
   xmlns:dc="http://purl.org/dc/elements/1.1/"
   xmlns:cc="http://creativecommons.org/ns#"
   xmlns:rdf="http://www.w3.org/1999/02/22-rdf-syntax-ns#"
   xmlns:svg="http://www.w3.org/2000/svg"
   xmlns="http://www.w3.org/2000/svg"
   xmlns:sodipodi="http://sodipodi.sourceforge.net/DTD/sodipodi-0.dtd"
   xmlns:inkscape="http://www.inkscape.org/namespaces/inkscape"
   version="1.1"
   id="Capa_1"
   x="0px"
   y="0px"
   width="19.999998"
   height="19.999998"
   viewBox="0 0 19.999998 19.999998"
   xml:space="preserve"
   sodipodi:docname="cross.svg"
   inkscape:version="1.0 (4035a4fb49, 2020-05-01)"><metadata
   id="metadata44"><rdf:RDF><cc:Work
       rdf:about=""><dc:format>image/svg+xml</dc:format><dc:type
         rdf:resource="http://purl.org/dc/dcmitype/StillImage" /><dc:title /></cc:Work></rdf:RDF></metadata><defs
   id="defs42" /><sodipodi:namedview
   inkscape:document-rotation="0"
   pagecolor="#ffffff"
   bordercolor="#666666"
   borderopacity="1"
   objecttolerance="10"
   gridtolerance="10"
   guidetolerance="10"
   inkscape:pageopacity="0"
   inkscape:pageshadow="2"
   inkscape:window-width="1920"
   inkscape:window-height="1017"
   id="namedview40"
   showgrid="false"
   inkscape:zoom="15.713484"
   inkscape:cx="-3.348153"
   inkscape:cy="16.470285"
   inkscape:window-x="-8"
   inkscape:window-y="-8"
   inkscape:window-maximized="1"
   inkscape:current-layer="Capa_1" />
<g
   id="g7"
   transform="matrix(0.03267963,0,0,0.03267963,3.267963e-5,3.267963e-5)"
   style="fill:#45474d;fill-opacity:1">
	<g
   id="_x38__41_"
   style="fill:#45474d;fill-opacity:1">
		<g
   id="g4"
   style="fill:#45474d;fill-opacity:1">
			<path
   d="m 270.68076,312.12659 83.18642,-83.1864 c 22.9704,-22.9704 22.9704,-60.216 0,-83.18641 -22.96979,-22.9704 -60.21539,-22.9704 -83.18642,0 l -83.1864,83.18641 -83.1864,-83.18581 c -22.970402,-22.9704 -60.215996,-22.9704 -83.1864,0 -22.9704034,22.97041 -22.9704034,60.21602 0,83.18642 l 83.1864,83.18579 -83.1858,83.1864 c -22.9704034,22.96983 -22.9704034,60.216 0,83.18642 22.970404,22.9704 60.216005,22.9704 83.18641,0 l 83.18579,-83.18642 83.1864,83.18642 c 22.96983,22.9704 60.216,22.9704 83.18642,0 22.9704,-22.96979 22.9704,-60.21602 0,-83.18642 z"
   id="path2"
   style="fill:#45474d;fill-opacity:0.690763;stroke-width:0.6" />
		</g>
	</g>
</g>
<g
   id="g9"
   transform="matrix(0.03267963,0,0,0.03267963,3.267963e-5,3.267963e-5)"
   style="fill:#45474d;fill-opacity:1">
</g>
<g
   id="g11"
   transform="matrix(0.03267963,0,0,0.03267963,3.267963e-5,3.267963e-5)"
   style="fill:#45474d;fill-opacity:1">
</g>
<g
   id="g13"
   transform="matrix(0.03267963,0,0,0.03267963,3.267963e-5,3.267963e-5)"
   style="fill:#45474d;fill-opacity:1">
</g>
<g
   id="g15"
   transform="matrix(0.03267963,0,0,0.03267963,3.267963e-5,3.267963e-5)"
   style="fill:#45474d;fill-opacity:1">
</g>
<g
   id="g17"
   transform="matrix(0.03267963,0,0,0.03267963,3.267963e-5,3.267963e-5)"
   style="fill:#45474d;fill-opacity:1">
</g>
<g
   id="g19"
   transform="matrix(0.03267963,0,0,0.03267963,3.267963e-5,3.267963e-5)"
   style="fill:#45474d;fill-opacity:1">
</g>
<g
   id="g21"
   transform="matrix(0.03267963,0,0,0.03267963,3.267963e-5,3.267963e-5)"
   style="fill:#45474d;fill-opacity:1">
</g>
<g
   id="g23"
   transform="matrix(0.03267963,0,0,0.03267963,3.267963e-5,3.267963e-5)"
   style="fill:#45474d;fill-opacity:1">
</g>
<g
   id="g25"
   transform="matrix(0.03267963,0,0,0.03267963,3.267963e-5,3.267963e-5)"
   style="fill:#45474d;fill-opacity:1">
</g>
<g
   id="g27"
   transform="matrix(0.03267963,0,0,0.03267963,3.267963e-5,3.267963e-5)"
   style="fill:#45474d;fill-opacity:1">
</g>
<g
   id="g29"
   transform="matrix(0.03267963,0,0,0.03267963,3.267963e-5,3.267963e-5)"
   style="fill:#45474d;fill-opacity:1">
</g>
<g
   id="g31"
   transform="matrix(0.03267963,0,0,0.03267963,3.267963e-5,3.267963e-5)"
   style="fill:#45474d;fill-opacity:1">
</g>
<g
   id="g33"
   transform="matrix(0.03267963,0,0,0.03267963,3.267963e-5,3.267963e-5)"
   style="fill:#45474d;fill-opacity:1">
</g>
<g
   id="g35"
   transform="matrix(0.03267963,0,0,0.03267963,3.267963e-5,3.267963e-5)"
   style="fill:#45474d;fill-opacity:1">
</g>
<g
   id="g37"
   transform="matrix(0.03267963,0,0,0.03267963,3.267963e-5,3.267963e-5)"
   style="fill:#45474d;fill-opacity:1">
</g>
</svg>
